<?xml version="1.0" encoding="UTF-8"?>
<svg xmlns="http://www.w3.org/2000/svg" style="display:none">
  <!-- Sprite of commonly used icons (viewBox 0 0 24 24) -->
  <symbol id="search" viewBox="0 0 24 24">
    <path d="M21 21l-4.35-4.35" stroke="currentColor" stroke-width="2" stroke-linecap="round" stroke-linejoin="round" fill="none"/>
    <circle cx="11" cy="11" r="6" stroke="currentColor" stroke-width="2" fill="none" />
  </symbol>

  <symbol id="edit" viewBox="0 0 24 24">
    <path d="M3 21v-3l11-11 3 3L6 21H3z" fill="currentColor"/>
    <path d="M14 7l3 3" stroke="currentColor" stroke-width="2" stroke-linecap="round" stroke-linejoin="round" fill="none"/>
  </symbol>

  <symbol id="bookmark" viewBox="0 0 24 24">
    <path d="M6 2h12v20l-6-4-6 4V2z" fill="currentColor"/>
  </symbol>

  <symbol id="bell" viewBox="0 0 24 24">
    <path d="M15 17h5l-1.405-1.405A2.032 2.032 0 0118 14.158V11c0-3.07-1.64-5.64-4.5-6.32V4a1.5 1.5 0 10-3 0v.68C7.64 5.36 6 7.92 6 11v3.159c0 .538-.214 1.055-.595 1.436L4 17h5" fill="none" stroke="currentColor" stroke-width="1.6" stroke-linecap="round" stroke-linejoin="round" />
    <path d="M13.73 21a2 2 0 01-3.46 0" fill="none" stroke="currentColor" stroke-width="1.6" stroke-linecap="round" stroke-linejoin="round" />
  </symbol>

  <symbol id="heart" viewBox="0 0 24 24">
    <path d="M12 21s-7-4.63-9-7.09C-1 9.5 4 .65 12 6c8-5.35 13 3.5 9 7.91C19 16.37 12 21 12 21z" fill="currentColor" />
  </symbol>

  <symbol id="comments" viewBox="0 0 24 24">
    <path d="M21 15a2 2 0 01-2 2H7l-4 4V5a2 2 0 012-2h14a2 2 0 012 2z" fill="currentColor"/>
  </symbol>

  <symbol id="calendar" viewBox="0 0 24 24">
    <rect x="3" y="5" width="18" height="16" rx="2" ry="2" fill="none" stroke="currentColor" stroke-width="1.6"/>
    <path d="M16 3v4M8 3v4M3 11h18" stroke="currentColor" stroke-width="1.6" stroke-linecap="round" stroke-linejoin="round" fill="none"/>
  </symbol>

  <symbol id="eye" viewBox="0 0 24 24">
    <path d="M2 12s4-7 10-7 10 7 10 7-4 7-10 7S2 12 2 12z" fill="none" stroke="currentColor" stroke-width="1.6" stroke-linecap="round" stroke-linejoin="round"/>
    <circle cx="12" cy="12" r="3" fill="currentColor"/>
  </symbol>

  <symbol id="share" viewBox="0 0 24 24">
    <path d="M4 12v7a1 1 0 001 1h14a1 1 0 001-1v-7" fill="none" stroke="currentColor" stroke-width="1.6" stroke-linecap="round" stroke-linejoin="round"/>
    <path d="M12 3v12" stroke="currentColor" stroke-width="1.6" stroke-linecap="round" stroke-linejoin="round"/>
    <path d="M8 7l4-4 4 4" stroke="currentColor" stroke-width="1.6" stroke-linecap="round" stroke-linejoin="round" fill="none"/>
  </symbol>

  <symbol id="flag" viewBox="0 0 24 24">
    <path d="M4 21V4" stroke="currentColor" stroke-width="1.6" stroke-linecap="round" stroke-linejoin="round" fill="none"/>
    <path d="M4 4c2-1 4-1 6 0s4 1 6 0 4-1 6 0v10c-2 1-4 1-6 0s-4-1-6 0-4 1-6 0" stroke="currentColor" stroke-width="1.6" stroke-linecap="round" stroke-linejoin="round" fill="none"/>
  </symbol>

  <symbol id="trash" viewBox="0 0 24 24">
    <path d="M3 6h18" stroke="currentColor" stroke-width="1.6" stroke-linecap="round" stroke-linejoin="round" fill="none"/>
    <path d="M8 6v14a2 2 0 002 2h4a2 2 0 002-2V6" stroke="currentColor" stroke-width="1.6" stroke-linecap="round" stroke-linejoin="round" fill="none"/>
    <path d="M10 11v6M14 11v6" stroke="currentColor" stroke-width="1.6" stroke-linecap="round" stroke-linejoin="round" fill="none"/>
  </symbol>

  <symbol id="star" viewBox="0 0 24 24">
    <path d="M12 .587l3.668 7.431L23.327 9.6l-5.659 5.52L19.335 24 12 19.897 4.665 24l1.667-8.88L.673 9.6l7.659-1.582L12 .587z" fill="currentColor"/>
  </symbol>

  <symbol id="users" viewBox="0 0 24 24">
    <path d="M17 21v-2a4 4 0 00-4-4H7a4 4 0 00-4 4v2" stroke="currentColor" stroke-width="1.6" stroke-linecap="round" stroke-linejoin="round" fill="none"/>
    <circle cx="9" cy="7" r="4" stroke="currentColor" stroke-width="1.6" fill="none"/>
    <path d="M23 21v-2a4 4 0 00-3-3.87" stroke="currentColor" stroke-width="1.6" fill="none"/>
  </symbol>

  <symbol id="newspaper" viewBox="0 0 24 24">
    <rect x="3" y="4" width="18" height="16" rx="2" ry="2" fill="none" stroke="currentColor" stroke-width="1.6"/>
    <path d="M7 8h6M7 12h10M7 16h4" stroke="currentColor" stroke-width="1.6" stroke-linecap="round" stroke-linejoin="round" fill="none"/>
  </symbol>

  <symbol id="folder" viewBox="0 0 24 24">
    <path d="M3 7a2 2 0 012-2h4l2 2h8a2 2 0 012 2v8a2 2 0 01-2 2H5a2 2 0 01-2-2V7z" fill="currentColor"/>
  </symbol>

  <symbol id="cog" viewBox="0 0 24 24">
    <path d="M19.4 15a1.65 1.65 0 00.33 1.82l.06.06a2 2 0 01-2.83 2.83l-.06-.06a1.65 1.65 0 00-1.82-.33 1.65 1.65 0 00-1 1.51V21a2 2 0 01-4 0v-.09a1.65 1.65 0 00-1-1.51 1.65 1.65 0 00-1.82.33l-.06.06A2 2 0 014.27 16.9l.06-.06a1.65 1.65 0 00.33-1.82 1.65 1.65 0 00-1.51-1H3a2 2 0 010-4h.09a1.65 1.65 0 001.51-1 1.65 1.65 0 00-.33-1.82L4.21 4.27A2 2 0 016.9 4.27l.06.06a1.65 1.65 0 001.82.33H9a1.65 1.65 0 001-1.51V3a2 2 0 014 0v.09c.24.74.87 1.26 1.6 1.51h.01a1.65 1.65 0 001.82-.33l.06-.06A2 2 0 0119.73 7.1l-.06.06a1.65 1.65 0 00-.33 1.82V10c.24.74.87 1.26 1.6 1.51H21a2 2 0 010 4h-.09c-.74.24-1.26.87-1.51 1.6z" fill="currentColor"/>
  </symbol>

  <symbol id="home" viewBox="0 0 24 24">
    <path d="M3 10.5L12 3l9 7.5V21a1 1 0 01-1 1h-5v-6H9v6H4a1 1 0 01-1-1V10.5z" fill="currentColor"/>
  </symbol>

  <symbol id="menu" viewBox="0 0 24 24">
    <path d="M4 6h16M4 12h16M4 18h16" stroke="currentColor" stroke-width="1.6" stroke-linecap="round" stroke-linejoin="round" fill="none"/>
  </symbol>

  <symbol id="sign-out" viewBox="0 0 24 24">
    <path d="M9 21H5a2 2 0 01-2-2V5a2 2 0 012-2h4" stroke="currentColor" stroke-width="1.6" fill="none" stroke-linecap="round" stroke-linejoin="round"/>
    <path d="M16 17l5-5-5-5" stroke="currentColor" stroke-width="1.6" fill="none" stroke-linecap="round" stroke-linejoin="round"/>
    <path d="M21 12H9" stroke="currentColor" stroke-width="1.6" fill="none" stroke-linecap="round" stroke-linejoin="round"/>
  </symbol>

  <symbol id="envelope" viewBox="0 0 24 24">
    <path d="M2 6.5v11a2 2 0 0 0 2 2h16a2 2 0 0 0 2-2v-11" stroke="currentColor" stroke-width="1.6" fill="none" stroke-linecap="round" stroke-linejoin="round"/>
    <path d="M22 6.5L12 13 2 6.5" stroke="currentColor" stroke-width="1.6" fill="none" stroke-linecap="round" stroke-linejoin="round"/>
  </symbol>

  <symbol id="lock" viewBox="0 0 24 24">
    <rect x="3" y="10" width="18" height="11" rx="2" stroke="currentColor" stroke-width="1.6" fill="none"/>
    <path d="M7 10V8a5 5 0 0 1 10 0v2" stroke="currentColor" stroke-width="1.6" fill="none" stroke-linecap="round" stroke-linejoin="round"/>
  </symbol>

  <symbol id="user" viewBox="0 0 24 24">
    <circle cx="12" cy="8" r="3" stroke="currentColor" stroke-width="1.6" fill="none"/>
    <path d="M4 20v-1a6 6 0 0 1 6-6h4a6 6 0 0 1 6 6v1" stroke="currentColor" stroke-width="1.6" fill="none" stroke-linecap="round" stroke-linejoin="round"/>
  </symbol>

  <symbol id="sign-in" viewBox="0 0 24 24">
    <path d="M15 3h4a2 2 0 0 1 2 2v14a2 2 0 0 1-2 2h-4" stroke="currentColor" stroke-width="1.6" fill="none" stroke-linecap="round" stroke-linejoin="round"/>
    <path d="M10 17l5-5-5-5" stroke="currentColor" stroke-width="1.6" fill="none" stroke-linecap="round" stroke-linejoin="round"/>
    <path d="M15 12H3" stroke="currentColor" stroke-width="1.6" fill="none" stroke-linecap="round" stroke-linejoin="round"/>
  </symbol>

  <symbol id="exclamation-circle" viewBox="0 0 24 24">
    <circle cx="12" cy="12" r="9" stroke="currentColor" stroke-width="1.6" fill="none"/>
    <path d="M12 8v4" stroke="currentColor" stroke-width="1.6" stroke-linecap="round"/>
    <circle cx="12" cy="16" r="1" fill="currentColor"/>
  </symbol>

  <symbol id="user-plus" viewBox="0 0 24 24">
    <path d="M16 11v6" stroke="currentColor" stroke-width="1.6" stroke-linecap="round"/>
    <path d="M19 14h-6" stroke="currentColor" stroke-width="1.6" stroke-linecap="round"/>
    <circle cx="9" cy="8" r="3" stroke="currentColor" stroke-width="1.6" fill="none"/>
    <path d="M2 20v-1a6 6 0 0 1 6-6h3" stroke="currentColor" stroke-width="1.6" fill="none" stroke-linecap="round" stroke-linejoin="round"/>
  </symbol>

  <symbol id="check-circle" viewBox="0 0 24 24">
    <path d="M9 12l2 2 4-4" stroke="currentColor" stroke-width="1.6" stroke-linecap="round" stroke-linejoin="round" fill="none"/>
    <circle cx="12" cy="12" r="9" stroke="currentColor" stroke-width="1.6" fill="none"/>
  </symbol>

  <symbol id="times-circle" viewBox="0 0 24 24">
    <path d="M15 9l-6 6M9 9l6 6" stroke="currentColor" stroke-width="1.6" stroke-linecap="round" stroke-linejoin="round" fill="none"/>
    <circle cx="12" cy="12" r="9" stroke="currentColor" stroke-width="1.6" fill="none"/>
  </symbol>

  <symbol id="plus-circle" viewBox="0 0 24 24">
    <path d="M12 8v8M8 12h8" stroke="currentColor" stroke-width="1.6" stroke-linecap="round" stroke-linejoin="round" fill="none"/>
    <circle cx="12" cy="12" r="9" stroke="currentColor" stroke-width="1.6" fill="none"/>
  </symbol>

  <symbol id="comment-dots" viewBox="0 0 24 24">
    <path d="M21 15a2 2 0 01-2 2H7l-4 4V5a2 2 0 012-2h14a2 2 0 012 2z" fill="none" stroke="currentColor" stroke-width="1.6" stroke-linecap="round" stroke-linejoin="round"/>
    <path d="M8 11h.01M12 11h.01M16 11h.01" stroke="currentColor" stroke-width="1.6" stroke-linecap="round" stroke-linejoin="round" fill="none"/>
  </symbol>

  <symbol id="megaphone" viewBox="0 0 24 24">
    <path d="M3 11v2a2 2 0 002 2h1v3a1 1 0 001 1h1" stroke="currentColor" stroke-width="1.6" fill="none" stroke-linecap="round" stroke-linejoin="round"/>
    <path d="M21 7a9 9 0 01-3 6" stroke="currentColor" stroke-width="1.6" fill="none" stroke-linecap="round" stroke-linejoin="round"/>
  </symbol>

  <symbol id="thumbtack" viewBox="0 0 24 24">
    <path d="M12 2l3 7-5 5 1 7-4-3-4 3 1-7 5-5L12 2z" fill="currentColor"/>
  </symbol>

  <symbol id="bolt" viewBox="0 0 24 24">
    <path d="M13 2L3 14h7l-1 8 10-12h-7l1-8z" fill="currentColor"/>
  </symbol>
  <!-- Simple social icons (generic shapes) -->
  <symbol id="facebook" viewBox="0 0 24 24">
    <circle cx="12" cy="12" r="10" fill="none" stroke="currentColor" stroke-width="1.6"/>
    <path d="M13.5 8.5h1.8v2.1h-1.4c0 0-0.8 0-0.8 0.8v1.1h2.2l-0.3 2.1h-1.9V20h-2.1v-5.4H9.5v-2.1h1.8V9.6c0-1.6 0.8-1.1 1.2-1.1" fill="currentColor"/>
  </symbol>

  <symbol id="twitter" viewBox="0 0 24 24">
    <circle cx="12" cy="12" r="10" fill="none" stroke="currentColor" stroke-width="1.6"/>
    <path d="M7.5 17c5 0 7.8-4.1 7.8-7.8v-0.4c0.5-0.4 0.9-1 1.2-1.6-0.4 0.2-0.9 0.4-1.3 0.5 0.5-0.3 0.8-0.8 1-1.4-0.5 0.3-1 0.5-1.6 0.6-0.5-0.6-1.3-1-2.2-1-1.7 0-3 1.4-3 3 0 0.2 0 0.4 0.1 0.6-2.5-0.1-4.7-1.3-6.2-3-0.3 0.6-0.1 1.4 0.5 1.8-0.4 0-0.8-0.1-1.1-0.3 0 1.3 0.9 2.4 2.2 2.7-0.3 0.1-0.6 0.1-0.9 0.1-0.2 0-0.4 0-0.6-0.1 0.4 1.3 1.6 2.2 3 2.2" fill="currentColor"/>
  </symbol>

  <symbol id="instagram" viewBox="0 0 24 24">
    <rect x="4" y="4" width="16" height="16" rx="4" ry="4" fill="none" stroke="currentColor" stroke-width="1.6"/>
    <circle cx="12" cy="12" r="3" fill="currentColor"/>
    <circle cx="17.5" cy="6.5" r="0.8" fill="currentColor"/>
  </symbol>

  <symbol id="linkedin" viewBox="0 0 24 24">
    <circle cx="12" cy="12" r="10" fill="none" stroke="currentColor" stroke-width="1.6"/>
    <path d="M8 11H6v7h2v-7zM7 9.5c0.7 0 1.2-0.5 1.2-1.2S7.7 7 7 7 5.8 7.5 5.8 8.3 6.3 9.5 7 9.5zM18 18h-2v-3.5c0-0.8 0-1.9-1.2-1.9-1.2 0-1.4 0.9-1.4 1.9V18h-2v-7h2v1c0.3-0.6 1.3-1.4 2.6-1.4 2 0 3.4 1.3 3.4 4V18z" fill="currentColor"/>
  </symbol>
</svg>
